<?xml version="1.0" encoding="utf-8"?>
<!-- Generator: Adobe Illustrator 24.1.0, SVG Export Plug-In . SVG Version: 6.00 Build 0)  -->
<svg version="1.1" id="Capa_1" xmlns="http://www.w3.org/2000/svg" xmlns:xlink="http://www.w3.org/1999/xlink" x="0px" y="0px"
	 viewBox="0 0 1176.5 610.3" style="enable-background:new 0 0 1176.5 610.3;" xml:space="preserve">
<style type="text/css">
	.st0{fill:#325E9E;}
	.st1{fill:#26A5D5;}
	.st2{fill:#26A4D6;}
	.st3{fill:#27A5D6;}
	.st4{fill:#77C6E5;}
	.st5{fill:#48B2DB;}
	.st6{fill:#74C6E5;}
	.st7{fill:#7E99C2;}
	.st8{fill:#62BEE1;}
	.st9{fill:#5EBCE0;}
	.st10{fill:#74C5E4;}
	.st11{fill:#64BEE1;}
	.st12{fill:#67C0E2;}
	.st13{fill:#6EC2E3;}
	.st14{fill:#7FC9E7;}
	.st15{fill:#5DBCDF;}
	.st16{fill:#AADBED;}
	.st17{fill:#5BBBE0;}
	.st18{fill:#FEFEFE;}
	.st19{fill:#FDFEFE;}
	.st20{fill:#FDFDFD;}
	.st21{fill:#FDFDFE;}
	.st22{fill:#FAFCFD;}
	.st23{fill:#FBFDFD;}
	.st24{fill:#68C0E3;}
	.st25{fill:#D4EDF6;}
	.st26{fill:#DBF0F7;}
	.st27{fill:#A6D9EE;}
	.st28{fill:#C2E5F3;}
	.st29{fill:#BFE4F2;}
	.st30{fill:#BAE1F1;}
	.st31{fill:#BAE2F1;}
	.st32{fill:#9BD5EC;}
	.st33{fill:#84CBE7;}
	.st34{fill:#51B7DE;}
	.st35{fill:#B4DFF0;}
	.st36{fill:#D1EBF5;}
	.st37{fill:#8ACEE9;}
	.st38{fill:#81CAE8;}
	.st39{fill:#B5E0F0;}
	.st40{fill:#4EB4DD;}
	.st41{fill:#BCE3F1;}
	.st42{fill:#B0DDEF;}
	.st43{fill:#BDE3F2;}
	.st44{fill:#DCEFF6;}
	.st45{fill:#9ED6EC;}
	.st46{fill:#AEDDEF;}
	.st47{fill:#C9E8F4;}
	.st48{fill:#81CAE7;}
	.st49{fill:#CCE9F4;}
	.st50{fill:#E9F5FB;}
	.st51{fill:#76C5E5;}
	.st52{display:none;fill:#325E9E;}
	.st53{display:none;fill:#26A5D5;}
	.st54{fill:#3A424C;}
</style>
<path class="st0" d="M792.1,222.1c31,1.3,54.8,16.7,75.9,37.9c17.8,17.8,33.8,37.2,52.2,54.3c12.3,11.4,25.5,21.7,41,28.6
	c2,0.9,3.6,1.8,4,4.4c3.2,23.8,10.3,46.7,15.4,70.1c4.1,18.9,5.9,38,5.4,57.4c-0.4,15.7,0.8,31.5-3.2,47.1
	c-4.1,16.5-10.2,31.9-23.5,43.4c-14.1,12.1-32.4,11.6-46-1.1c-8.2-7.6-13.8-16.9-17.5-27.3c-1.2-3.3-2.7-4.8-6.6-4.6
	c-49,2.6-98,5-147,7.3c-3.2,0.1-4.3,1.5-5.2,4.2c-4,12.1-9.3,23.5-17.9,33.2c-19.1,21.4-44.9,21.1-63.5-0.8
	c-7.5-8.9-12.8-19-16.2-30.1c-1.2-4.1-3.3-6-7.7-6.1c-33.1-1-66.1-2.3-99.2-3.5c-5.1-0.2-10.1-0.8-15.1-0.8c-3,0-5.1-1.3-7.2-3.2
	c-12.6-11.6-25.5-22.9-38-34.6c-3.3-3-6.6-4.3-11-4.4c-33.5-0.4-67-0.9-100.5-1.4c-23.8-0.3-47.5-0.6-71.3-1
	c-13.4-0.2-14.2,0-23.4,9.7c1.8,1.7,4.1,0.8,6,0.8c60.4,0.1,120.8,0.2,181.2-0.1c7.1,0,11.1,3.1,14.8,8.3c-2.3,1.8-4.7,1-6.9,1
	c-67.6,0.1-135.2,0.1-202.8,0c-4.5,0-7.9,1.2-10.6,4.9c2,1.9,4.5,1,6.7,1c69.8,0.1,139.5,0.1,209.3,0c3.8,0,7.5,0.1,10,3.5
	c1.2,1.6,4.3,2.6,3.3,4.9c-0.8,1.9-3.5,0.8-5.4,0.8c-63.7,0-127.4,0.2-191.1-0.1c-7.1,0-10.6,1.6-13,8.6
	c-3.4,10.2-9.4,19.2-18.2,25.9c-12.8,9.8-27.5,9.3-39-2.1c-13.6-13.3-20.6-29.9-22.2-48.8c-3.2-38.9,2.2-76.5,17.9-112.4
	c3.4-7.7,7.6-14.6,14.4-20.1c28.8-23.5,60.9-39.7,97.8-45.7c4.3-0.7,6.2-1.7,2.9-5.9c-0.8-1-1.4-2.4-1.8-3.6
	c-4.1-10.8-1-16.7,10.2-19.1c7.2-1.5,14.5-1.2,21.3,1.6c3.7,1.5,6,0.8,8.9-1.6c20.4-16.8,41.6-32.9,61.3-50.5
	c13.1-11.6,28.2-17.4,44.5-21.6c38.4-9.9,77.6-14.5,117.1-16.7c55.1-3.1,110.1-2.1,165.1,3.3c8.5,0.8,17,1.9,25.5,2.8
	C779.6,220.9,785.9,221.1,792.1,222.1z"/>
<path class="st1" d="M524.2,212.6c-28,3.7-55.6,9.4-82.5,18.2c-10.3,3.4-17.4,10.8-25.4,17.2c-19.4,15.6-38.7,31.4-57.9,47.3
	c-2.7,2.2-5,2.9-8.4,1.8c-9-3-18-2.8-26.9,0.6c-10.4,4-14,10-11,20.9c1.5,5.7,0.2,7.1-5.2,8.3c-36.3,7.7-67.5,25.2-95.3,49.4
	c-2.9,2.5-5,5.4-6.7,8.7c-15.2,29.2-22,60.5-24,93.1c-0.1,1.6-0.3,3.1-0.1,4.7c0.3,4.2-1.2,5.3-5.5,4.5c-46.7-8.6-82.7-49.6-85-97
	c-0.9-18.4,1.6-36,10.6-52.4c4.6-0.1,7.7-2.3,9.4-6.7c1-2.7,3.7-3.2,6.3-3.5c2.8-0.3,4.6-1.7,5.1-4.7c0.4-2.3-1.3-5.5,1.7-6.9
	c3.3-1.5,7.1-2.7,10.8-1.9c4.9,1,9.7,0.2,14.5,0.5c4.4,0.2,6.2-2.1,7.2-6c1-3.8,0.1-7.3-0.4-11c-0.3-2.5-2.5-2.6-4.4-3
	c-4.4-0.9-8-2.9-7.6-8c0.9-11.7-0.8-23.6,1.7-35.2c0.8-3.8,2.5-6.2,6.3-6.5c3.3-0.3,4.1-2,4.3-4.9c0.2-3.5,1.4-6.9,0.9-10.4
	c-0.6-4.2,1.2-6.8,5.1-7.9c4.3-1.2,6.8-3.5,6.7-8.2c0-3,1.8-3.9,4.6-4c3.1,0,6.2-0.1,9.3,0.3c6.4,0.8,7.5-0.1,8.9-6.2
	c0.4-1.7,0.5-3.5,1.7-4.9c8.8-4.6,18.3-3.5,27.3-2.3c13.4,1.8,25.8,6.8,36.2,15.8c3.6,3.9,7.6,7.5,11.1,11.5
	c1.2,1.9,2.6,3.6,3.6,5.5c0.2-0.4-0.2-0.5-0.3-0.8c-0.9-1.4-1.5-2.8-0.8-4.5c2.7-0.5,4-1.5,3.9-4.9c-0.2-6.1-1.7-12.3,0.1-18.4
	c0.5-1.1,1.4-1.7,2.5-2c7.6-1.9,10.9-0.1,11.6,7.1c0.3,3.5,1.8,4.2,4.9,3.7c3.6-0.6,5.2,1.5,5.9,4.8c1.2,6.9,1.3,6.9,8.2,5.5
	c0.5,0,1.1,0.1,1.6,0.2c0.4,0.1,1,0.7,1.2,0.5c0.4-0.4-0.4-0.5-0.4-0.9c-0.9-1.7-2-3.1-3.1-4.6c-14.6-36.7-0.1-72.8,27.5-91.1
	c30-19.8,71.1-14.5,93.5,10.1c2.2,2.5,4.7,4.8,6.5,7.7c0.6,0.9,1.2,1.8,1.7,2.7c0.9,1.6,1.5,3.2,2.6,4.7c4.3,3.3,9.5,1.7,13.9,1.3
	c4.1-0.4,7.6,0.3,11.1,1.8c4.5,2.3,6.2,6.5,7.1,11.1c0.2,0.9,0.2,1.8,0,2.8c0.6-1.8,1-3.7,3.3-4c7.9,1.3,8.7,0.8,11.1-6.1
	c1.7-4.8,8.2-7,12-3.3c2.6,2.5,6.2,4.7,7.3,8.7c-2.3,5.3-7.5,5.3-11.9,6.7c2.9,1.9,6.5,1.6,9.4,3.1c8.9,5.1,12.6,13.3,13,20.8
	c0.4-7.7,4-15.7,13-20.7c3.4-1.3,6.8-2.2,10.4-2.8c0.8-0.1-0.2,0.1,0.6-0.1c0,0-0.1,0-0.2,0c-11.9-0.3-23.1-10.7-24.3-26.3
	c-0.1-0.8-0.7,0.4-0.1,0c0.5,4,0.9,8-3,10.8c-2.2,0.8-4.5,1.3-6.7,1.8c-4.8,1.1-7.8-1.2-7.3-6.1c0.4-4.2-1.2-5.6-4.9-6.1
	c-4.7-0.7-7.8-3.2-8.5-8.2c-0.2-1.3,0-2.5-2.2-2.6c-5.5-0.4-8.2-2.9-9.1-8.2c-0.4-2.6-1-4.6-4.1-4.4c-3.3,0.2-4,2.5-4.1,5.3
	c-0.1,3.5,0.5,7,1.2,10.4c1.2,6.3-4.1,10.9-10.3,8.8c-2.2-0.8-4.3-1.7-6.8-1.1c-6.4,1.4-9.9-0.7-10.5-7c-0.4-4.6-1.9-7.3-5.7-10.4
	c-4.2-3.3-6.8-8.9-8.7-14.2c-1.3-3.5,0.8-5.5,4.9-5.7c4.1-0.1,8.2,0.1,11.8-2.4c1-0.7,2.2-0.7,3.4-0.3c3.2,1,4.9-0.4,5.4-3.4
	c0.9-4.9,3.7-6.7,8.6-6.6c7.1,0,14.2-1.6,21.3,0.7c3.1,1,6.5-0.2,9.8-0.8c6.9-1.4,10.1,0.8,11.4,7.6c0.4,1.9,0.9,3.4,3,3.6
	c1.9,0.2,3.7-0.5,4.3-2.3c1.6-5.1,3.5-9.5,10.1-9.4c1.4,0,1.9-1.8,2.1-3.2c0.3-1.5,0.3-3.1,1.1-4.5c1.8-3.2,8-5,7.8-5.7
	c-1.9-5.6,3.3-5.7,5.5-7.4c3.2-2.5,7.3-3.7,11.5-1.8c1.3,0.6,2.6,0.7,4,0.7c4.7,0,6.1-1.3,5-5.9c-0.9-4,0.6-5.5,4.3-5.7
	c2.3-0.1,4.7-0.2,7,0.1c2.7,0.3,4.5,1.6,4.1,4.5c-0.9,5.7,2.6,6.3,6.7,5.8c4.2-0.5,8.3-1.2,12.4,0.9c1.7,0.9,3.2,1.7,3.4,3.6
	c0.4,5.2,3.5,10,2.1,15.4c-0.7,2.8,0.9,3.2,3.4,2.9c5.1-0.5,7.3,1.3,6.9,6.5c-0.6,8.2,1.4,16.3,0.9,24.5c-0.2,2.8,0.9,4.7,4,4.3
	c2.9-0.3,4.6-1.9,4.1-5.2c-0.4-2.1-0.8-4.2-1-6.4c0.5-5.6,2-11.1,1.6-16.7c-0.4-4.8,2.4-6.6,6.8-6.5c4.2,0.1,8.7,0.6,12.6,0.1
	c7.5-1,14.8,0.5,22.1,0c7-0.6,13.8-1.2,20.6,0.6c1,0.3,1.9,0,2.8-0.1c5.6-0.8,7.3,0.7,7.9,6.8c-0.7,3.5-0.9,7.2-1.5,10.7
	c-0.1,0.8-0.2-0.2-0.1,0.5c0.1,0.6,0.2,0.6,0.2-0.1c0-0.4,0.2-0.7,0.3-1.1c0.2-1.7,0.8-3.4,1.4-5c17.3-31.6,51.6-34.9,74.8-21.7
	c17,9.6,27.8,30.8,25.3,49.7c-0.8,1.9-1.2,3.9-1.7,6.5c0.6-2,0.7-3.5,1.2-4.9c1-1.6,0.5-4.1,2.8-5c4.6-3.4,10.3-2.8,15.5-3.8
	c34.1-2,62.5,9.7,85.3,35.2c0.7,3.3,2.6,6.8-2.2,8.7c-1.6,0.7,0,1,0.4,1.2c0.9,0.6,1.7,1.6,1.1,2.4c-3.8,5.1-0.3,10.8-1.5,16
	c0.1,2.8-1,5.4-1.3,8.1c0.1,0.6-0.7,1.1-0.2,1.8c0.2-0.5,0.3-1,0.4-1.6c0.2-1.9,0.8-3.7,1.2-5.5c3-6.9,7.7-12.5,13.1-17.6
	c1.6-1.5,3.4-2.7,5.6-2.7c2.5,0.2,4.6,3.4,7.4,0.5c0.7-0.7,1.8,0,2.7,0.4c6.4,3.1,9.3,2.3,12.4-4.6c1.7-3.7,4.1-5.3,8.1-5.3
	c6.7,0,7.6,0.4,7.9,7.2c0.2,4.5,2.6,5.2,6.1,4.8c7-0.8,13.3,0.1,19.4,4.3c4.8,3.3,10.8,14.1,10.2,20.1c-0.4,3.5-2.3,7.6,3.6,8.9
	c1.7,0.4,2.7,2.8,2.5,4.9c-0.3,2.6-2.4,2.7-4.4,2.8c-1.2,0-2.2,0.2-2.8,1.6c-2.8,6.4,3.1,16.2,9.7,16.2c1.9,0,3.9,0.1,3.8-3
	c-0.1-3.7,2.4-3.2,4.1-1.5c2.5,2.4,5.1,5,6.6,8.1c0.8,1.7,1.7,2.5,3.1,3.5c3.7,2.6,7.1,2.4,10.7-0.1c21.3,15.5,34.8,36.4,39.4,62
	c7.7,42.4-5.1,78-39,105.3c-7.6,6.1-16.2,10.7-25.3,14.3c-3.1,1.2-4.6,1-5.4-2.5c-4.2-18.8-8.6-37.5-12.9-56.3
	c-1.1-6.7-2.2-13.3-3.3-20c-0.1-2.3-1.6-3.2-3.6-4c-17.6-6.9-31.9-18.4-45.3-31.3c-17-16.3-32.1-34.5-48.9-51
	c-14.2-14-29.3-26.8-48.3-34.1c-13.3-5.1-27.3-6-41.2-7.9c-52.8-7-105.8-9.5-159-8.9c-20.6,0.3-41.2,1.6-61.8,2.8
	C550.1,209.9,537,210.1,524.2,212.6z"/>
<path class="st2" d="M613.2,115.8c1.9,2.2,1.8,5.2,2.1,7.7c0.4,3.6-2.9,4.9-5.8,5c-2.8,0.1-6.4,0.5-5.7-4.6
	c1.2-9.2-2.1-18.3-0.5-27.7c0.3-2-1.5-5.9-5.2-3.1c-2.5,1.9-3.9,0.4-5.5-1c-1.9-1.5-1.3-3,0.2-4.4c2.8-2.4-1-4-0.7-6.3
	c0.2-1.6-0.7-3.4-1-5.1c-0.4-1.8-0.1-5.6-1.3-5c-3.6,1.6-5.1-3.7-8.8-1.8c-2.3,1.2-5.7,0.5-8.6,0.6c-4,0.2-5.6-2.1-4.5-5.5
	c1.7-4.9-0.7-5.3-4.4-5c-2.1,0.1-4.3,0-6.4,0.1c-1.7,0.1-2.6,1.2-1.8,2.8c1.4,2.5,3,4.8,0.4,7.3c-3,2.8-7.1,2.3-10,1.2
	c-5.8-2.4-10-0.9-13.5,3.6c-1.1,1.4-2.7-0.1-3.7,1.4c0.9,0.8,1.7,1.6,2.6,2.3c0.9,0.7,1.5,1.3,0.8,2.4c-0.6,0.9-1.4,0.9-2.5,0.7
	c-4.7-0.7-8.2,2.1-8.3,6.9c-0.1,4-1.3,6.4-5.9,5.5c-4.7-0.9-5,3-5.6,5.8c-0.8,3.5-2.1,5.5-6,5.8c-3.9,0.3-5.4-1.5-5.6-4.9
	c-0.3-6.2-3.4-8.7-9.4-6.9c-5.5,1.6-10.8,2.1-16.3-0.6c-3.2-1.6-6.8,2-10.7,0.7c-1.8-0.6-4.3,0.5-6.7,0.2c-3.2-0.4-5.2,2.5-4.6,5.2
	c1.2,4.9-2.9,5.7-4.8,5.2c-5.9-1.5-10.3,3.1-16,2.7c-6.4-0.4-6.7,1.4-3.1,7.3c1.7,2.7,4.8,4.7,4.8,8.4c0,0.5,0.5,1.4,0.8,1.4
	c7.6,0.9,6.5,6.7,7.3,12c0.6,3.9,2.4,8.3,8.3,4.6c1.9-1.2,4.8-0.7,6.7,0.9c3.2,2.8,5.7,0.7,8.3-0.8c3.1-1.8,1.6-4.5,1-6.7
	c-1.1-3.6-0.7-7.3-1.1-11c-0.5-5.1,2.9-6,6.5-6c3.7,0,5.4,1.8,4.7,6c-0.7,4.3,3.9,7.5,8,6c2-0.7,3.4-0.5,3.4,2.2
	c0.1,9.9,3.2,9.3,9.3,10c4.3,0.5,4.7,2.3,4.3,5.7c-1,6.8,0.4,8,6.8,5.8c1.7-0.6,3.4-0.7,5.1-0.7c0.1,5.7-1.8,8.3-7.1,9.5
	c-4.2-2.5-5.7-8.4-11.5-8.9c-3.4-0.3-5.5,0.7-6,4.4c-1,7.3-6.4,9.5-12.9,5.5c-1-1-1.1-2.1-0.8-3.4c2.5-6.8,7.9-10,14.6-11.7
	c1.2,0.1,2.7-0.5,3.3,0.7c-2.2-1.5-5.3-0.8-7.8-2.2c-5.4-1.7-8.9-5.2-10.2-10.8c-0.8-2-0.1-4.6-2.4-5.9c-1.5,1.2-0.1,2.5-0.2,3.7
	c-0.3,6.5-4.1,10.4-9.8,12.7c-1.8,0.7-3.6,1.3-5.5,1.6c-0.8,0.1,0.2-0.1-0.6,0c0.1,0.3,0.4,0.1,0.7,0.1c3.5,1.1,7.7,0.9,8.7,5.6
	c-6.2-2.5-12.5-0.9-18.8-0.6c-2.8,0.1-5.6,0-7.3-2.9c0.7-2.5-0.9-4.4-1.8-6.4c-0.5-0.9-1-1.8-1.6-2.7c-1.9-2.7-2.9-5.8-5.1-8.3
	c-10.1-14.3-23.2-24.6-40.1-29.6c-44.5-13.2-86,15.7-93.6,56.9c-3.9,20.9,1.7,39.6,12.8,57.2c0.8,1.3,1.5,2.7,0.9,4.3
	c-0.8,0.2-1.5,0.3-2.3,0.5c-8,2.6-8.1,2.6-8.3-5.6c-0.1-3.7-0.6-6.1-5.4-4.6c-3.4,1.1-6.4,1.1-5.4-4.6c1.5-8.2-5.7-6.5-10.2-7.8
	c4.7-3,5-6.7,3.8-12.2c-12.8-61.2,40.3-114.8,102.1-102.1c13.6,2.8,25.8,8.6,36.4,17.5c3.2,2.7,5.3,2.4,8.5,0.2
	c12-8.3,25.3-13.9,39.7-16c8.8-1.3,17.8-3.1,26.8-1.3c3.1,0.6,5.8,0.4,6.9-3.3c0.5,0.1,0.7-0.1,0.6-0.6c-0.1-0.3-0.2-0.4-0.4-0.4
	c2.8-9.6,7.4-18,15.1-24.6c0.5,0.6,1.3,0.6,2,0.7c-0.7-0.2-1.5,0-2.1-0.7c12.9-14,29.1-19.8,47.9-18.8c2.7,1.8,5.9-0.1,8.7,1.2
	c0.6,0.1,1.3,0.1,1.9,0.2c4.9,2.4,10.4,3.4,15.3,5.7l-0.1-0.1c1.6,1.7,3.8,2.6,6,3.5l-0.1-0.1c4.9,4.1,10.1,8,14.1,13l-0.1-0.1
	c-0.2,2.6,1.9,3.5,3.5,4.8l-0.1,0c1,1.9,2.1,3.7,2.8,5.7c1,2.7,0.5,5.2-2.1,6.5c-2.8,1.4-4.2-0.8-5.3-2.9c-0.7-1.4-1.3-2.8-2.4-3.9
	c-0.4-0.4-0.7-0.9-1-1.4c-4-6.6-8.6-12.5-15.9-15.6c-0.5-0.3-0.8-0.6-1.2-1c-3.7-2.7-8-3.8-12.3-4.7c-0.5-0.1-1-0.3-1.5-0.6
	c-1.4-1.2-3.2-1.5-4.7-2.6c-1.5-3.3-1.6,1.3-2.7,0.5c-5.8,0.5-11.8-0.5-17.4,2.2c-2.7,1.5-5.7,2.4-8.6,3.6
	c-13.7,6-23,16.1-28.6,29.9c-1.2,2.7-2,5.5-2.7,8.3c-0.1,0.4-0.2,0.7-0.3,1.1c0.3,0.1,0.1-0.2,0.2-0.3c0.5-2.9,2.2-5.4,3.3-8
	c11-17.4,27.2-26.6,47.4-25.8c22,0.8,38,12.3,47.3,32.6c1.1,3.7,2.3,7.3,2.5,11.2c-0.2,6.4,0.6,12.8-0.5,19.2
	c-0.3,0.8-0.9,1.5-1.2,2.3c-0.3,0.7,0.5,1.1,0.2,0.3c-0.2-0.7,1.1,0,0.4-0.4c0.5-0.8,0.9-1.7,1.5-2.4
	C611.4,118.1,611.9,116.6,613.2,115.8z"/>
<path class="st2" d="M274,200.8c1.7,8.8,1.3,17.6,1.1,26.3c-3.1,0.9-2.1-3.3-4.6-2.5c-1.7,0.4-2.2-1.1-3.1-2.1
	c-0.6-0.9-1.4-1.7-2.1-2.5c-5.2-7.8-10.6-15.2-18.2-21.1c-33-25.9-82.8-19-106.5,17.8c-16.4,25.5-15.9,51.7-1.6,78.1
	c1.7,3.1,3.3,6.2,5.6,8.9c0.4,0.3,0.8,0.8,1.1,1.2c0-0.6-0.5-0.9-0.9-1.3c-0.4-0.4-0.9-0.7-1.2-1.2c-1.9-3.2-2.4-7-4.1-10.3
	c-10.7-30.9,2.7-67.7,31-84.7c5.1-3.1,10.4-6.2,16.2-7.8c2.2-0.6,4.5-1.6,6.6,0.2c-0.2,0.5-0.5,1.1-0.6,1.6
	c-2.4,11.9-0.8,10.9-13.1,9.5c-2.9-0.3-5.6,1.4-8.5,0c-1-0.5-1.7,1-1.5,2.4c0.6,5.2-1.4,8.5-6.8,9.5c-4,0.8-6,2.6-4.7,7.3
	c1.2,4.8-2.6,9.7-0.4,14.8c0.3,0.8-1.3,1.4-2.7,1.3c-5.2-0.4-8,0.8-8.8,7.4c-1,8.2-0.9,16.2-0.5,24.3c0.1,2.7-0.9,5.3-1,8.2
	c-0.2,5.7,3,7.2,6.8,7.2c5-0.1,5.9,2,5.7,6.3c-0.1,2.3,1.1,4.6,0.8,6.8c-1.1,8.7-4.5,10.5-13.5,10.2c-6.1-0.2-12.2-2.1-18.6,0
	c-2.8,0.9-3,1.6-2.9,4.1c0.4,7.2-0.4,8.1-8.1,8.5c-4.3,0.2-5.5,4.6-5.7,6.3c-0.7,5.8-2.9,4.7-6.2,2.6c-0.6-0.4-1.5-0.2-2.3-0.2
	c4.9-12.6,13.4-22.7,23.2-31.8c3.1-2.9,3.2-5,1.2-8.4c-21.2-37.3-12.7-83.1,20.5-110.1c32.5-26.5,79.5-25.2,111.6,3
	c3.1,2.7,6.1,5.6,8.4,8.9C268.3,202.9,270.6,204,274,200.8z"/>
<path class="st3" d="M886.8,188.4c1.2-5.3-4.6-11.4,2.6-16c-2-1.1-4.3-1.2-4.5-3.4c-0.1-0.7,0.2-1.4,0.3-2.2
	c8.9,3.5,1.7-5.6,5.1-6.4c3.8-0.5,5.7-3.8,8.4-5.9c37.8-29.2,93.3-8,101.4,39c1.7,9.7,1.3,19.4-1.7,28.8c-1.3,3.9-0.1,5.4,3.3,7.1
	c5.7,2.8,11.4,5.8,16,10.4c-0.7,0.7-1.7,1.2-2,2c-1.1,3.5-2.1,4.7-5.4,1.5c-1.8-1.8-4.8-3.8-8.1-1.7c1.1-4-2.6-10.3-7.6-13.4
	c-1.9,2,3.6,3.6,0.6,5c-2.2,1.1-4.8,1.9-7.7,1.4c-4-0.7-7.2-2.8-8-6.2c-1-4.3-2.1-9-1.3-13.6c0.4-2.3,2.1-1.8,3.6-1.3
	c1.3,0.5,2.8,0.9,3.8-0.3c0.9-1,0.4-2.3-0.5-3.1c-1-1-1.1-3.6-3.9-1.8c-2.4,1.6-3.4-0.7-2.9-2.4c0.9-2.9,0.2-5.9,1.2-8.6
	c1.4-3.8-0.6-6.3-2.7-8.9c-0.8-1-2-1.9-2.6-3c-4-8-10.8-10.4-19.2-10c-0.6,0-1.2,0-1.7,0c-10,0.7-10.1,0.6-9.3-9.5
	c0-0.5,0.2-1.2-0.1-1.5c-1.7-2.2-11.5-0.4-12.8,2.4c-0.8,1.7-1,3.6-2.5,5.1c-5.6,5.4-8,5.6-13.6,0.5c-3.2,6.6-5.6-0.2-8.4-0.6
	c-0.1-3.2,2.6-4.1,4.7-5.1c33.8-17.4,73.7,4.6,77.4,42.5c-0.1,2.7,0.2,5.4-0.4,8.1c0,1.3-1,2.4-1.1,3.7c-0.1,0.8,0.1-0.2,0,0.6
	c-0.1,0.6-0.1,0.6,0.1,0c0.2-1.8,1.3-3.3,1.5-5.1c2.2-8.7,2.5-17.5-0.2-26.2c-5.1-17.2-15.8-29.2-32.7-35.4
	c-18.9-6.9-35.8-3-51.1,9.7c-7.7,6.4-12.2,14.9-16.5,23.7C887.9,188.7,887.4,188.7,886.8,188.4z"/>
<path class="st3" d="M605.9,69.2c2.3,0.6,3.3,2.4,3.9,4.5c0.5,1.5,0.9,3.9,3.3,3c1.9-0.7,2.6-2.9,2.2-4.9c-0.4-2.2-1.4-4.3-2.1-6.5
	c5.2,6.1,7.6,13.4,9.4,21c0.8,3.3,1.7,4.7,5.8,3.8c15-3.3,30.2-2.9,45.1,1c3.8,1,5.6,0.3,7.7-3.4c13.7-24.3,39.3-36.2,67.2-31.6
	c24.8,4.1,45.4,25,50.3,51.3c0.7,4,1.5,8.2,0.9,12.1c-0.7,4.9,1.3,5.8,5.3,5.6c-0.3,0.5-0.7,1.4-1,1.3c-5.3-1-9.3,3.4-14.4,3.3
	c-1.7-1.8-1.3-4-0.9-6.1c3.7-23.9-14.1-47.1-33.3-54.4c-25.6-9.7-52.9,4.7-62,21.5c-1.8,3.4-3.1,7.1-6,9.9c-0.6,0.3-1.2,0.2-1.7-0.2
	c0.6-5.6-2-6.9-7.4-7.3c-5.3-0.5-10.6,0.8-15.9-0.5c-3.7-0.9-7,2.7-11.2,1.2c-1.7-0.6-4.2,0-5.9-1.3c-3.5-2.6-5.1,2.1-8.4,1.9
	c-5.5-0.4-10.8-2.4-16.6-1.2c-3.8,0.8-5,1.8-4.7,5.4c0.4,5.8-0.3,11.6-2.3,17.1c0,1.6,0.2,3.3-2.1,3.5c-0.2-0.2-0.5-0.4-0.7-0.6
	c-0.7-2.5,0.3-4.8,0.7-7.1c3.3-12.6,1.6-24.7-4.1-36.3C606.1,73.4,604.8,71.5,605.9,69.2z"/>
<path class="st3" d="M21.8,294.8c8.6-2.7,16.7-4.3,23.2-10.6c6.3-6.1,7-14.6,10.3-22.4c2.9,8,3.9,16.3,10.2,22.5
	c6.3,6.1,14.3,7.4,24,9.6c-9,3.9-18,3.8-24.1,10.4c-6,6.4-7.5,14.6-10.4,23.3C52.1,308.4,42.1,296.6,21.8,294.8z"/>
<path class="st3" d="M245,155.1c-2.3-19.6-12.9-30.5-32.9-33c19.6-2.9,30.6-13.5,32.8-33.1c3.6,8,4.2,16.5,10.4,22.6
	c6.2,6.1,13.9,8.1,22.3,10c-7.3,4-16.3,4-22.4,10.5C249.2,138.5,248.1,146.9,245,155.1z"/>
<path class="st3" d="M1111.2,403.4c-9.4,6.2-11.9,16.3-14.4,26.7c-3.4-8-4.1-16.7-10.5-23.1c-6.3-6.3-14.7-7.2-23-10.2
	c19.8-2.4,30.8-13.1,32.9-33.1c3.4,8.3,4.3,16.9,10.7,23.3c6.3,6.3,14.7,7.2,22.8,9.5c-1.6,2.6-3.6,2.4-5.6,2.5
	C1119.6,399.4,1115.1,400.5,1111.2,403.4z"/>
<path class="st3" d="M1124.1,306.4c5.9,9.8,16.1,11.8,26.6,14.7c-14.1,2-25.5,7.2-30.2,21.5c-0.7,2.2-1.8,4.2-1.7,6.6
	c0,2.1-1.3,2.6-3.1,1.8c-1.8-2.2-0.7-4.9-1.5-7.3c-3.6-11.8-11.5-18.6-23.5-20.7c-1.7-0.3-3.4-0.7-5.1-1.1c-0.3-0.1-0.5-0.5-0.8-0.9
	c1.3-2.2,3.8-1.9,5.7-2.2c13.8-2.6,22-10.8,24.4-24.7c0.3-1.7,0.8-3.4,1.2-5.1c4.5-0.1,1.6,4.1,3.3,5.7c0.8,2.3,1.6,4.7,2.3,7
	C1122.6,303.2,1122.9,305.1,1124.1,306.4z"/>
<path class="st3" d="M195.7,79.6c3.1,11.7,12.2,15.7,23.4,18.1c-15.1,1.9-23.4,10-25.5,25.4c-2.6-15-10.4-23.9-25.8-25.1
	c9.4-2.9,18.4-5,22.3-14.9c0.5-1.2,1.6-2.2,1.6-3.6c0-1.6,0.3-3.4,2.2-3.5C196,76,194.5,78.6,195.7,79.6z"/>
<path class="st3" d="M69.5,218.8c10.8-2.9,15.6-10.8,17.6-21c4.5-0.2,1.6,4.3,3.6,5.7c3.4,10.9,12.2,15,22.9,17.3
	c-9.6,1.8-17.9,4.9-22,14.3c-2.5,2.3,0.3,7.6-4.8,8.4c-1-8-4.5-14.6-11.5-18.9c-1.7-1.9-4.4-1.4-6.4-2.4
	C65.2,220.3,67.7,219.6,69.5,218.8z"/>
<path class="st3" d="M297.4,69.1C294.9,56.5,287,50,273.9,48.1c8.6-2.3,16.5-5.1,20.9-13.1c2.3-2.3,1.6-5.4,2.5-8.1l0,0
	c1.1-0.4,0.2-3,2.4-2.3c1.5,10.1,6.5,17.5,16.4,21.1c1.1,1.2,4.1-0.3,3.9,2.3c-0.2,3.1-3.8,0.6-5,2.4c-9.8,3.5-13.4,11.6-15.3,20.9
	C297.5,72.1,298.5,69.4,297.4,69.1z"/>
<path class="st4" d="M524.2,212.6c4.5-2.7,9.7-2.3,14.6-2.7c8-0.7,16-2.5,24.2-1.6c-8.6,2.3-17.5,2.2-26.2,3.1
	C532.6,211.9,528.5,213.4,524.2,212.6z"/>
<path class="st3" d="M609.8,60.8c-5.2-3.8-10.1-7.9-14.1-13C601.5,50.9,606.5,55,609.8,60.8z"/>
<path class="st5" d="M69.5,218.8c-1.4,1.2-2.1,2.3,0.4,3c2,0.6,4.4,0.2,5.4,2.7c-4-1-8-2-13.3-3.4C64.9,219,67,218.5,69.5,218.8z"/>
<path class="st3" d="M589.9,44.4c-5.3-1.5-11-1.7-15.3-5.7C580.1,39.5,585.3,41.1,589.9,44.4z"/>
<path class="st6" d="M971.1,342.6c2.1,6.5,3.3,13.1,3.3,20C972.2,356.1,971,349.4,971.1,342.6z"/>
<path class="st7" d="M792.1,222.1c-6.4,0.4-12.6-0.4-18.7-2.3C779.7,219.6,786,220.1,792.1,222.1z"/>
<path class="st8" d="M195.7,79.6c-0.6-0.9-1.1-2.4-1.9-2.5c-1.3-0.2-1.4,1.4-1.6,2.4c-0.2,1.6-0.7,2.9-2.2,3.6
	c0.9-3.6,1.8-7.3,2.9-12.1C195.4,74.3,195.9,76.8,195.7,79.6z"/>
<path class="st9" d="M315,50.4c0.5-1.6,8-1.4,1.1-4.7c2.8-0.1,5.6,0,8.4,2.3C321.4,50.3,318.2,50.4,315,50.4z"/>
<path class="st10" d="M86.8,243.4c3.8-1.6,1.7-6.4,4.8-8.4c-0.7,3.2-1.3,6.4-2.1,9.5c-0.2,0.8-0.6,2.2-1.8,1.4
	C87.1,245.6,87.1,244.3,86.8,243.4z"/>
<path class="st11" d="M1115.6,351c4.6-1.1,1.3-6.7,4.9-8.4c-0.5,3-1,6-1.6,9c-0.2,1.1-0.7,2.6-2.1,2.3
	C1115.6,353.7,1115.8,352.1,1115.6,351z"/>
<path class="st12" d="M1111.2,403.4c3.5-4,8-4.9,13-4.5C1119.9,400.3,1115.6,401.8,1111.2,403.4z"/>
<path class="st13" d="M90.7,203.4c-2.3-1.2-0.6-4.9-3.6-5.7c-0.1-0.9-0.4-2.1,0.5-2.6c0.7-0.4,1.3,0.4,1.7,1
	C90.5,198.5,90.7,200.9,90.7,203.4z"/>
<path class="st14" d="M1119.4,294.7c-2-1.4-0.5-4.8-3.3-5.7c-0.1-1.3,0.2-2.6,1.7-1.2C1119.9,289.6,1119.5,292.2,1119.4,294.7z"/>
<path class="st3" d="M613.3,65.5c-3.2-0.1-4.8-1.4-3.5-4.8C611.6,61.8,612.9,63.3,613.3,65.5z"/>
<path class="st15" d="M297.4,26.9c0.2,3,0.6,6.1-2.5,8.1C295.4,32.2,295.9,29.4,297.4,26.9z"/>
<path class="st3" d="M595.8,47.9c-3,0.5-4.8-0.9-6-3.5C592.2,44.8,594.3,45.9,595.8,47.9z"/>
<path class="st3" d="M572.7,38.5c-2.9-0.3-6.1,1.3-8.7-1.2C567,37.2,569.9,37,572.7,38.5z"/>
<path class="st15" d="M299.8,24.6c-0.8,0.8-1.6,1.5-2.4,2.3c0.1-1.6-0.6-3.7,1.7-4.2C299.8,22.6,299.8,23.9,299.8,24.6z"/>
<path class="st1" d="M501,80.7c1,0.1,2.2-0.3,2.8,1c0.1,0.2-0.1,0.8-0.3,0.9c-1.2,0.7-2,0.1-2.7-0.9C500.6,81.3,500.7,81,501,80.7z"
	/>
<path class="st16" d="M1124.1,306.4c-1.9-1-2.4-2.7-2.3-4.7C1123.3,302.9,1124,304.5,1124.1,306.4z"/>
<path class="st17" d="M297.4,69.1c0.8,0.8,1.6,1.5,2.4,2.3c0.1,0.7,0,2-0.7,1.8C297.1,72.5,297.2,70.7,297.4,69.1z"/>
<path class="st18" d="M359.2,318.2c14.9-13.2,28.8-25.6,42.7-38c8-7.1,16.1-14.1,24-21.3c14.6-13.2,31.9-20.1,51.4-20.9
	c40.4-1.7,80.9-3.7,121.4-3.4c44.6,0.3,89.1,2.6,133.3,8.5c4.2,0.6,5.2,1.4,3.7,5.7c-5.7,16.7-9.8,34-17.1,50.2
	c-1.8,4.1-4.1,8-6.5,11.7c-5.5,8.2-13.2,11.7-23.1,10.2c-1.9-0.3-3.9-0.4-5.8-0.4c-39.5-0.1-79.1-0.2-118.6-0.4
	c-43.4-0.2-86.8-0.5-130.3-0.7c-21-0.1-42.1-0.2-63.1-0.4C367.6,319,364,318.5,359.2,318.2z"/>
<path class="st18" d="M493,421.9c-15.8,4-30.4,7.7-45.1,11.4c-28.9,7.3-57.7,14.6-86.6,22c-2.2,0.6-4,0.6-6.2-0.1
	c-32.8-10.6-65.6-21.1-98.4-31.5c-3.4-1.1-5.1-2-1.9-5.6c7-8.1,13.7-16.4,20.4-24.8c2-2.5,4.3-3.5,7.5-3.4
	c56.5,0.4,113,0.7,169.5,1.1c2,0,3.9,0,5.5,1.4C469.3,401.8,480.7,411.5,493,421.9z"/>
<path class="st18" d="M883.7,307.3c0,17,0,17.1-14.5,18.2c-42.3,3.1-84.6,6.2-126.9,9.2c-11.2,0.8-11.5,0.6-10-10.4
	c2.5-18.8,6.7-37.2,15.8-54c15.3-28,41-37.3,70.8-25.7c24,9.3,43.2,25,59.7,44.5C884,295.5,883.9,302.5,883.7,307.3z"/>
<path class="st18" d="M645.8,494.8c0.4-17.4,3.4-36.8,12.8-54.9c2.9-5.6,6.5-10.6,11-15c11.6-11.4,24.9-11.5,36.5,0
	c10.3,10.2,15.8,23.1,19.1,36.8c7.6,31.7,6.4,62.9-8,92.7c-3.1,6.5-7.3,12.4-12.9,17.1c-11.6,9.7-23.5,9.4-34.4-1.2
	c-10.9-10.5-16.2-24-19.9-38.3C647.1,520.7,645.9,509.1,645.8,494.8z"/>
<path class="st18" d="M902,494.3c0-19.8,2.9-35.9,10.4-51.1c2.6-5.3,5.9-10.1,10.3-14.1c9.4-8.6,20-8.4,29,0.5
	c9.4,9.2,14.1,20.9,17,33.4c5.8,25.4,4.6,50.2-6.1,74.2c-2.7,6.1-6.3,11.7-11.3,16.2c-9.8,8.8-19.5,8.6-29-0.5
	c-8.3-7.9-12.7-18.1-15.8-28.8C903.4,513.4,901.8,502.5,902,494.3z"/>
<path class="st18" d="M477.8,387.8c29.9-2.2,59.2-4.3,88.5-6.4c26-1.9,52-3.7,78-5.6c6.6-0.5,7-0.2,6,6.6c-1.1,7.9-4.7,14.8-9.6,21
	c-4.3,5.5-9.4,10.5-12.9,16.5c-1.4,2.4-3,2.6-5.3,1.4c-15-8.1-31.2-8.2-47.6-7.7c-19.6,0.7-39.3,0.5-59,0.7c-2,0-3.9,0.1-5.6-1.2
	c-10.5-7.8-21-15.5-31.4-23.3C478.4,389.5,478.3,388.8,477.8,387.8z"/>
<path class="st18" d="M514.2,489.6c3.2-2.5,7.2-3.4,10.9-4.9c25.9-10.5,51.9-20.8,77.9-31.4c3.9-1.6,5.3-1.5,4.4,3.1
	c-1.2,6.8-0.2,13.6,0.7,20.3c2.2,17.5-4.7,28.4-23,38.5c-1.6,0.9-2.9,0.5-4.5,0c-22.2-7.1-44-15.3-65.5-24.4
	C514.7,490.7,514.6,490.2,514.2,489.6z"/>
<path class="st18" d="M194.9,475.9c0-5.8,0-11.7,0-17.5c0-3.5,1.3-4,4.2-2.1c14.7,9.9,29.4,19.8,44.1,29.6c3.3,2.2,3,3.2-0.5,4.7
	c-13.6,5.8-27.2,11.6-40.6,17.7c-4.2,1.9-5.5,0.5-6-3.4C194.9,495.4,193.9,485.7,194.9,475.9z"/>
<path class="st18" d="M232.4,410.9c-4.1,0-8.2-0.4-12.2,0.1c-3.2,0.4-4.6-0.7-5.5-3.5c-3.1-8.9,1.5-21.7,9.8-26.5
	c1.4-0.8,2.6-0.4,3.9-0.2c13.8,2.1,27.6,4.3,41.4,6.2c3.8,0.5,3,2,1.4,4c-4.4,5.4-8.9,10.7-13.4,16.2c-1.4,1.7-3,2.1-5.1,2.2
	c-6.8,0.3-13.5,0.8-20.3,1.3C232.4,410.8,232.4,410.9,232.4,410.9z"/>
<path class="st19" d="M306.7,217.7c-16.3-23-20.1-47.9-9-74c20.8-49,82.1-61.4,121-25.1c4.3,4,8,8.5,10.8,13.7
	c0.8,2.2,1.5,4.3-2.3,3.3c-15-14.8-32.8-22.4-54-22.3c-46.6,0.2-81.5,46.6-68.7,91.5c1,3.5,2.2,6.9,3.3,10.4
	C308.9,216.8,308.6,217.7,306.7,217.7z"/>
<path class="st19" d="M138.4,295.9c-27.9-42.4-1.9-103.1,48.1-112.4c27.3-5.1,50.6,2.3,70.2,22c4.3,4.3,6.8,9.8,10.3,14.7
	c-0.7,2.4-0.8,2.5-2.4,1.2c-2.8-2.3-5-5.3-8-7.3c-18-13.7-38-19.4-60.5-15.1c-0.9,0.2-1.8,0.6-2.7,1c-22.6,4.9-38.6,18.3-48.7,38.7
	c-8.5,17.3-9.4,35.4-3.9,53.8c0.7,1.5,1.2,3.2-0.2,4.5C139.8,297.6,139,296.6,138.4,295.9z"/>
<path class="st20" d="M686.8,100.6c10.9-24.2,29.8-37.1,52.7-36c31.6,1.5,54.8,29.7,50.3,61.2c-0.2,1.3-0.2,2.7-0.3,4.1
	c-0.7,1.6-1.4,3.2-2.1,4.8c-1.1,0.3-1.7,0-1.3-1.3c0.7-22.1-7.5-39.5-27.2-50.4c-23.6-12.9-53.1-5.1-67.8,17.5
	c-1.1,1.6-2.1,3.3-3.1,4.9c-1.1,0.3-1.7-0.3-2-1.3C686.1,102.9,686,101.6,686.8,100.6z"/>
<path class="st20" d="M987.5,209.4c-4.9-41.9-49.2-58-79-38.9c-0.6,0.4-1.2,1-1.7,1.5c-8.2,4.6-13.1,12-17.5,20
	c-2.8-0.4-1.7-2.2-1.3-3.7c7.7-23.2,28.5-38.7,51.4-38.2c23.7,0.5,43.8,16.1,50.5,39.3c2.1,8.8,2.4,17.7,0.4,26.5
	c-1.4,1.4-1.9,0.3-2.1-0.9C987.6,213.1,988.3,211.2,987.5,209.4z"/>
<path class="st21" d="M503.3,161.6c3.9-2,6.1-5.3,7.1-9.5c2.8-3,1.5-7.5,4.3-11.3c2.1,14.9,9.1,24.9,24.6,26.6
	c-1,2.9-3.9,1.9-5.9,2.6c-1.8,0.7-3.9,1-5.6,2.1c-8.5,5-11.4,13.3-13.5,22.5c-2.4-8.9-5-17.5-13.5-22.5c-1.7-1.3-3.6-1.6-5.6-2.1
	c-1.7-0.4-4.2-0.1-4.7-2.7C494.6,165.2,500,165.6,503.3,161.6z"/>
<path class="st22" d="M543.1,104.2c9.9-2,14.6-8.8,16.6-18.5c2.3,10.9,7.9,17.7,19.6,19.6c-11.4,2.1-17.7,8.7-19.3,20.1
	c-2.3-7.3-4.6-14.5-12.4-17.6c-0.8-1.2-2.1-0.6-3.2-0.8C542.7,106.6,541.9,105.9,543.1,104.2z"/>
<path class="st23" d="M486.9,148.5c-5.9,1.8-11,4.7-13.9,10.6c-1.5,1.4,0,5.3-3.9,4.9c-1.4-4-2.1-8.5-6.4-10.9
	c-2.4-3.2-6.2-3.5-9.6-4.6c0.7-3.1,4.2-1.7,5.7-3.5c5-2.9,9.2-6.4,9.6-12.7c0.1-0.9,0.5-1.4,1.4-1.6c2.4,0.3,2.3,2.4,3,4
	c1.7,4.9,5,8.2,9.5,10.4C483.6,146.4,486.8,145.4,486.9,148.5z"/>
<path class="st24" d="M686.8,100.6c-0.1,1.1-0.1,2.2-0.2,3.4c0.1,2-0.7,3.9,0.1,5.9c-0.1,2.1-0.8,3.9-3.1,7
	c-0.4-6.6,0.9-11.5,2-16.3C686,100.6,686.4,100.6,686.8,100.6z"/>
<path class="st25" d="M427.2,135.7c2.3-0.1,2.3-1.7,2.3-3.3c2.6,2.1,3.3,5.2,4.8,8c0.7,1.4,0.9,2.6-1.3,2.5
	C431.1,140.4,429.2,138,427.2,135.7z"/>
<path class="st26" d="M256.6,214c3.8,0.6,5.2,4.1,7.9,6.1c0.8,0.6,1.7,2.8,2.5,0c1,0.2,1.2,1,1.4,1.9c0.6,1.5,0.7,2.8-1.5,2.7
	C263.4,221.1,260,217.6,256.6,214z"/>
<path class="st27" d="M887.8,188.2c0.4,1.3-0.2,2.9,1.3,3.7c-0.4,1.9-0.9,3.8-1.3,5.7c-0.4,0.8-0.9,1.6-2,1.3
	c-0.6-0.1-0.5-0.7-0.4-1.2c0.4-3.1,0.8-6.2,1.3-9.3C887.1,188.3,887.5,188.2,887.8,188.2z"/>
<path class="st28" d="M490.4,167.3c2.9,2.9,7.9,1.1,10.4,4.9c-3.9-1-7.8-1.9-11.7-2.9c-0.7-0.2-1.7-0.6-1.2-1.4
	C488.3,166.8,489.5,167.1,490.4,167.3z"/>
<path class="st29" d="M527.9,172.1c2.9-3.8,8.1-2.2,11.5-4.8c2.4,0.2,2.5,1.2,0.3,1.9C535.9,170.4,531.9,171.2,527.9,172.1z"/>
<path class="st30" d="M266.8,224.7c1.2-0.5,1.4-1.6,1.5-2.7c0.7,0.9,1.5,1.8,2.2,2.6c0.5,1.5,0.9,3,1.4,4.5c0.3,1.3-0.3,1.6-1.5,1.4
	C269.3,228.6,268,226.6,266.8,224.7z"/>
<path class="st31" d="M469.1,164c2.5-0.7,2.1-3.7,3.9-4.9c-0.1,1.1-0.1,2.3-0.2,3.4c-0.9,1.8-1.8,3.5-3.1,6
	C469.4,166.5,469.2,165.2,469.1,164z"/>
<path class="st32" d="M543.1,104.2c-0.1,3.1,3.8,1.4,4.4,3.6c-1.8-0.3-3.7-0.4-5.5-0.8c-1-0.2-2.5-0.8-2-2.1
	C540.5,103.8,542,104,543.1,104.2z"/>
<path class="st27" d="M306.7,217.7c1-0.5,1.2-1.4,1.2-2.4c1.8,0.9,2.1,2.7,2.6,4.4c0.3,1.3-0.3,1.7-1.4,1.4c-0.3-0.1-0.6-0.1-1-0.1
	C307.6,219.9,307.1,218.8,306.7,217.7z"/>
<path class="st33" d="M435.5,142.6c1.4,2.2,3.6,4.2,1.1,7c-0.8-1.5-1.6-3-2.4-4.5C435,144.4,434.4,143,435.5,142.6z"/>
<path class="st34" d="M885.5,197.6c0.8,1.2,1.6,0.2,2.3-0.1c0,1.9-0.9,4.1-2.6,3.7C883.7,200.9,884.3,198.8,885.5,197.6z"/>
<path class="st35" d="M786.1,133.3c0.4,0.4,0.9,0.8,1.3,1.3c0.1,1.8-0.8,3.3-2.3,6.1C784.9,137.2,784.6,135.2,786.1,133.3z"/>
<path class="st36" d="M686.7,109.8c-2-1.9-1.3-3.9-0.1-5.9c0.5,0.5,1,0.9,1.5,1.4C687.6,106.8,687.2,108.3,686.7,109.8z"/>
<path class="st37" d="M309,221.1c0.5-0.5,1-1,1.4-1.4c0.7,1.2,1.5,2.4,2.7,4.4C310.6,223.7,309.9,222.3,309,221.1z"/>
<path class="st38" d="M270.5,230.5c0.5-0.5,1-0.9,1.4-1.4c0.9,1.2,1.7,2.4,0.5,3.9C271.8,232.2,271.1,231.3,270.5,230.5z"/>
<path class="st39" d="M435.5,142.6c-0.2,1-0.2,2-1.3,2.5c-0.4-0.8-0.8-1.5-1.3-2.3c1.1-0.5,1.2-1.5,1.3-2.5
	C434.7,141.1,435.1,141.8,435.5,142.6z"/>
<path class="st21" d="M605.9,69.2c3.7,7.4,7.3,14.9,8.1,23.3c0.7,6.8,0.5,13.4-1.9,19.9c-2.8,0.2-2.4-1.9-2.5-3.5
	c-0.2-2.7,0-5.3-0.1-8c-0.1-0.6-0.2-1.2-0.4-1.7c-0.3-3.6-0.8-7.2-3-10.3c-10.1-20.2-26.2-31.5-49.1-31.1
	c-18.8,0.3-33.1,9.8-43.4,25.3c-0.5,0.8-1.2,1.7-2.1,1c-1.2-0.9-0.8-2.3-0.3-3.5c6.6-17.9,19.8-28.4,37.6-33.9
	c8.6-2.5,17.1-3.1,25.7,0.2c0.3,0.3,0.5,0.3,0.8,0.1c4.7,1.2,9.5,2.3,13.2,5.7l0,0C596.4,56.1,601.7,62.2,605.9,69.2L605.9,69.2z"/>
<path class="st3" d="M574.6,46.9c-8.6-1.6-17.1-1.7-25.7-0.2c4.1-3.9,9.4-2,14.1-2.7c1.5-0.2,3.1,0.3,4.6,0.5c0.8-0.7,1.6-0.7,2.3,0
	C571.7,44.7,574.2,43.7,574.6,46.9z"/>
<path class="st3" d="M606,69.2c-5.2-6.2-10.7-12-17.4-16.5C597.6,54.8,602.6,61.2,606,69.2z"/>
<path class="st40" d="M607.3,120.5c2.6-6.9,0.3-14.2,1.3-21.2c0.5-0.3,0.8-0.2,0.9,0.3l0-0.1c1.4,6.5,0.4,13.1,1.1,19.7
	c0,0,0.4,0.1,0.4,0.1c-0.5,1.2-1,2.3-1.4,3.5C607.1,123.8,606.4,123,607.3,120.5z"/>
<path class="st3" d="M588.6,52.7c-4.4-1.9-8.8-3.8-13.2-5.7c5-0.7,8.8,2.8,13.3,3.7C588.8,50.7,588.6,52,588.6,52.7z"/>
<path class="st41" d="M511.3,80.6c0.6,1-0.8,4,2.4,2.4c-0.1,3.2-3.1,5.1-3.6,8.1c-1.1,0.1-1.8-0.1-1.2-1.4
	C509,86.5,509.4,83.4,511.3,80.6z"/>
<path class="st42" d="M458.8,145c-1.2,2.3-4.2,1.8-5.7,3.5c-0.9,0-2.3,0.3-2.6-0.1c-0.9-1.1,0.4-1.6,1.2-1.8
	C454,145.9,456.4,145.4,458.8,145z"/>
<path class="st43" d="M486.9,148.5c-1.6-1.2-3.1-2.3-4.7-3.5c2.8,0.6,5.6,1.2,9.3,1.9C489.7,148.8,488.3,148.8,486.9,148.5z"/>
<path class="st44" d="M609.5,99.6c-0.3-0.1-0.6-0.2-0.9-0.3c-0.8-3.4-1.6-6.9-2.5-10.3C609.7,91.7,609.8,95.6,609.5,99.6z"/>
<path class="st45" d="M472.7,134.6c-1.3-1.1-1.5-3.2-3.4-3.7c-0.9-1.1-0.8-2.3,0-3.4C473.9,128.2,472,132,472.7,134.6z"/>
<path class="st1" d="M469.3,127.5c0,1.1,0,2.3,0,3.4c-0.3,0.4-0.6,0.9-0.9,1.3C466.5,130.2,465.9,128.5,469.3,127.5z"/>
<path class="st3" d="M607.3,120.5c0,1.5,0.8,2.3,2.3,2.3c-0.2,1.1-0.4,2.6-2,1.7C605.9,123.5,605.5,122,607.3,120.5z"/>
<path class="st1" d="M516.1,56.2c1.6,0.5,3.2-1.1,5.6,0.4C519.3,57.6,517.7,57.8,516.1,56.2C516.1,56.2,516.1,56.2,516.1,56.2z"/>
<path class="st46" d="M508.9,89.8c0.4,0.5,0.8,0.9,1.2,1.4c-0.4,1-0.8,2-1.5,3.7C507.6,92.5,507.9,91.1,508.9,89.8z"/>
<path class="st1" d="M569.9,44.5c-0.8,0-1.6,0-2.3,0c0.1-1.1,0.1-2.6,1.4-2.5C570.5,42,569.6,43.6,569.9,44.5z"/>
<path class="st47" d="M138.4,295.9c4.4,1.3,1.5-2.5,2.4-3.5c1.9,3.2,3.2,6.6,3.8,10.3c0.3,0.6,0.2,1.2-0.3,1.7
	C141.4,302.1,139.5,299.2,138.4,295.9z"/>
<path class="st48" d="M144.3,304.3c0.1-0.5,0.2-1.1,0.3-1.7c3.1,0.7,3.3,3.1,3.6,5.8C145.7,307.7,144.5,306.4,144.3,304.3z"/>
<path class="st1" d="M108.1,332.1c-0.7,0.7-1.1,1.4-1.6,1.7c-0.7,0.4-1.6,0.1-1.4-0.9c0.1-0.6,0.8-1.2,1.4-1.5
	C106.7,331.2,107.3,331.7,108.1,332.1z"/>
<path class="st49" d="M989.4,216.1c2.4-8.9,1-17.9,0.3-26.8c3.4,9.4,3.4,18.9,0,28.3c-0.3-0.3-0.5-0.6-0.4-1
	C989.3,216.3,989.4,216.1,989.4,216.1z"/>
<path class="st50" d="M989.4,216.1c0.1,0.5,0.2,1,0.3,1.5c-0.5,1.8-0.9,3.7-1.4,5.5c-3.1-0.8-1.3-2.9-1.2-4.5
	c0.1-3.1,0.2-6.2,0.3-9.3C989.7,211.1,987.3,214.3,989.4,216.1z"/>
<path class="st51" d="M987.1,218.6c0.6,1.5-0.4,3.4,1.2,4.5c-0.4,1.2-0.5,2.6-2.5,3.1C985.9,223.5,985.7,221,987.1,218.6z"/>
<path class="st1" d="M952.5,173.1c-0.3-0.5-0.9-0.9-0.8-1.2c0.1-0.4,0.7-0.8,1.1-0.9c0.8-0.1,1.5,0.4,1.2,1.3
	C953.9,172.6,953.1,172.8,952.5,173.1z"/>
<path class="st1" d="M1009.6,236.3c-0.7,0.7-1.2,1.3-1.7,1.6c-0.2,0.1-1-0.5-1.1-0.9c-0.2-0.9,0.5-1.4,1.3-1.5
	C1008.4,235.4,1008.9,235.9,1009.6,236.3z"/>
<path class="st44" d="M610.7,119.2c-2-6.5-0.1-13.2-1.1-19.7c2.3,2,1,4.7,1.3,7c0.3,2-0.7,4.3,1.3,5.9
	C612.5,114.9,611.1,116.9,610.7,119.2z"/>
<g>
	<path class="st1" d="M68.6,1163.6H211c-1.1,2.4-3,5.4-5.7,9.2c-2.7,3.8-5.6,7.6-8.7,11.3c-3.1,3.7-6.1,6.9-9.1,9.6
		c-2.9,2.7-5.1,4-6.5,4h-76.9l-14.4,39.7l23.7-23.3h57.7l-35.6,34.2H85.8l-17.7,49.3H20.4L68.6,1163.6z"/>
	<path class="st1" d="M321.6,1297.7h-44.4l-5.2-28.6c-0.3,1-1.5,3-3.5,5.8c-2.1,2.9-4.4,5.9-7.1,9.1c-2.6,3.2-5.2,6.2-7.7,8.9
		c-2.5,2.7-4.3,4.3-5.4,4.8H142.5c0.3-1.7,0.4-2.3,0.4-1.8v-0.8l90-116.4c0.6-1,1.6-2.4,3-4c1.5-1.7,3.1-3.3,4.9-4.9
		c1.8-1.6,3.6-3,5.3-4.3c1.7-1.3,3.2-1.9,4.3-1.9h42.1c1.8,0,3.4,0.9,4.7,2.8c1.3,1.9,2.5,4.1,3.5,6.8c1,2.7,1.9,5.5,2.7,8.5
		c0.8,3,1.4,5.4,1.8,7.5L321.6,1297.7z M221.2,1261.3v2.5h50.8l-8.7-59.5L221.2,1261.3z"/>
	<path class="st1" d="M448.3,1253.7c0-1.3-0.2-2.7-0.7-4.2c-0.5-1.4-1.4-2.2-2.8-2.2h-50c-5,0-9.5-1.2-13.5-3.7
		c-4-2.4-7.5-5.6-10.3-9.4c-2.8-3.8-5-8-6.6-12.5c-1.5-4.6-2.3-9-2.3-13.4c0-4,1.1-8.6,3.4-13.8c2.3-5.1,5.3-10,9-14.7
		c3.7-4.6,7.8-8.5,12.5-11.6c4.7-3.1,9.3-4.7,14.1-4.7h127.5c-3.9,5.7-8.3,11.5-13.1,17.2c-4.9,5.7-10.3,11.5-16.5,17.2h-82.5
		c-1.9,0-3.5,1.3-4.8,3.8c-1.2,2.5-1.9,4.6-1.9,6.1v1.3c0,0.2,0.3,0.5,0.9,1.1c0.6,0.6,1.1,1.1,1.6,1.4c0.7,0.7,1.7,1.3,2.9,1.9
		c1.3,0.6,1.9,0.9,2.1,0.9h47.5c5.4,0,10.1,1.3,14,3.9c3.9,2.6,7,5.9,9.4,9.9c2.4,4,4.1,8.2,5.2,12.8c1.1,4.6,1.7,8.8,1.7,12.7v1.5
		c0,4.4-1,9.1-3,14c-2,5-4.7,9.6-7.9,13.8c-3.3,4.2-7,7.7-11.2,10.5c-4.2,2.8-8.6,4.2-13,4.2H332.3c0.8-1.7,2.5-4.4,5.1-8.1
		c2.6-3.7,5.3-7.5,8.2-11.3c2.9-3.8,5.6-7.2,8.1-10.1c2.5-2.9,4-4.4,4.6-4.4h85c2.5,0,4-0.8,4.4-2.3c0.4-1.5,0.6-3.1,0.6-4.8v-1.5
		V1253.7z"/>
	<path class="st1" d="M534.1,1297.7l36-99.9h-47.3v-0.3c0.1-0.7,1.4-2.5,3.6-5.6c2.3-3,5-6.4,8.1-10.1c3.1-3.7,6.3-7.3,9.6-10.8
		c3.3-3.5,6-5.9,8.2-7.5h125.2c-1.1,2.4-3,5.4-5.7,9.2c-2.7,3.8-5.6,7.6-8.7,11.3c-3.1,3.7-6.1,6.9-9.1,9.6c-2.9,2.7-5.1,4-6.5,4
		h-29.4l-36,99.9H534.1z"/>
</g>
<g>
	<path class="st0" d="M419.5,1424.4c0-1.3-0.2-2.7-0.7-4.2c-0.5-1.4-1.4-2.2-2.8-2.2h-50c-5,0-9.5-1.2-13.5-3.7
		c-4-2.4-7.5-5.6-10.3-9.4c-2.8-3.8-5-8-6.6-12.5c-1.5-4.6-2.3-9-2.3-13.4c0-4,1.1-8.6,3.4-13.8c2.3-5.1,5.3-10,9-14.7
		c3.7-4.6,7.8-8.5,12.5-11.6c4.7-3.1,9.3-4.7,14.1-4.7h127.5c-3.9,5.7-8.3,11.5-13.1,17.2c-4.9,5.7-10.3,11.5-16.5,17.2h-82.5
		c-1.9,0-3.5,1.3-4.8,3.8c-1.3,2.5-1.9,4.6-1.9,6.1v1.3c0,0.2,0.3,0.6,0.9,1.1c0.6,0.6,1.1,1.1,1.6,1.4c0.7,0.7,1.7,1.3,2.9,1.9
		c1.3,0.6,1.9,0.9,2.1,0.9h47.5c5.3,0,9.8,1.3,13.6,3.9c3.8,2.6,6.9,5.9,9.4,9.9c2.4,4,4.2,8.2,5.4,12.8c1.2,4.6,1.8,8.8,1.8,12.7
		v1.5c0,4.4-1,9.1-3,14c-2,5-4.7,9.6-7.9,13.8c-3.3,4.2-7,7.7-11.2,10.5c-4.2,2.8-8.6,4.2-13,4.2H303.5c0.8-1.7,2.5-4.4,5.1-8.1
		c2.6-3.7,5.3-7.5,8.2-11.3s5.6-7.2,8.1-10.1c2.5-2.9,4-4.4,4.6-4.4h85c2.5,0,4-0.8,4.4-2.3c0.4-1.5,0.6-3.1,0.6-4.8v-1.5V1424.4z"
		/>
	<path class="st0" d="M465.7,1468.4l48.1-134.1h114.8c4.6,0,8.5,1.3,11.8,3.9c3.3,2.6,5.9,5.8,7.8,9.6c1.9,3.8,3.4,7.8,4.3,12.1
		c0.9,4.3,1.4,8.1,1.4,11.5c0,7.1-1.7,13.6-5,19.5c-3.3,5.9-7.6,11-12.7,15.3c-5.1,4.3-10.8,7.6-17,10c-6.2,2.4-12.1,3.5-17.8,3.5
		h-70.2l-17.5,48.6H465.7z M549.4,1368.7l-13.7,38.5l24-21.5h40c0.1,0,0.5-0.4,1-1.1c0.6-0.8,1.2-1.6,1.9-2.7c0.7-1,1.4-2,2-2.9
		c0.6-0.9,1-1.6,1.1-2.2l0.4-1.3c-0.1-0.2-0.3-0.6-0.4-1.3c-0.6-0.8-1.5-2-2.7-3.4c-1.3-1.4-2-2.2-2.3-2.2H549.4z"/>
	<path class="st0" d="M682.5,1334.3h47.7l-35.8,99.9h79.2c0.3,0-0.7,1.4-2.8,4.3c-2.2,2.9-4.8,6.2-8,10c-3.2,3.8-6.5,7.6-10,11.4
		c-3.5,3.8-6.4,6.6-8.7,8.5H634.4L682.5,1334.3z"/>
	<path class="st0" d="M946.7,1468.4h-44.4l-5.2-28.6c-0.3,1-1.5,3-3.5,5.8c-2.1,2.9-4.4,5.9-7.1,9.1c-2.6,3.2-5.2,6.2-7.7,8.9
		c-2.5,2.7-4.3,4.3-5.4,4.8H767.5c0.3-1.7,0.4-2.3,0.4-1.8v-0.8l90-116.4c0.6-1,1.6-2.4,3-4c1.5-1.7,3.1-3.3,4.9-4.9
		c1.8-1.6,3.6-3,5.3-4.3c1.7-1.3,3.2-1.9,4.3-1.9h42.1c1.8,0,3.4,0.9,4.7,2.8c1.3,1.9,2.5,4.1,3.5,6.8c1,2.7,1.9,5.5,2.7,8.5
		c0.8,3,1.4,5.4,1.8,7.5L946.7,1468.4z M846.3,1432v2.5h50.8l-8.7-59.5L846.3,1432z"/>
	<path class="st0" d="M1073.3,1424.4c0-1.3-0.2-2.7-0.7-4.2c-0.5-1.4-1.4-2.2-2.8-2.2h-50c-5,0-9.5-1.2-13.5-3.7
		c-4-2.4-7.5-5.6-10.3-9.4c-2.8-3.8-5-8-6.6-12.5c-1.5-4.6-2.3-9-2.3-13.4c0-4,1.1-8.6,3.4-13.8c2.3-5.1,5.3-10,9-14.7
		c3.7-4.6,7.8-8.5,12.5-11.6c4.7-3.1,9.3-4.7,14.1-4.7h127.5c-3.9,5.7-8.3,11.5-13.1,17.2c-4.9,5.7-10.3,11.5-16.5,17.2h-82.5
		c-1.9,0-3.5,1.3-4.8,3.8c-1.3,2.5-1.9,4.6-1.9,6.1v1.3c0,0.2,0.3,0.6,0.9,1.1c0.6,0.6,1.1,1.1,1.6,1.4c0.7,0.7,1.7,1.3,2.9,1.9
		c1.3,0.6,1.9,0.9,2.1,0.9h47.5c5.4,0,10.1,1.3,14,3.9c3.9,2.6,7,5.9,9.4,9.9c2.4,4,4.1,8.2,5.2,12.8c1.1,4.6,1.7,8.8,1.7,12.7v1.5
		c0,4.4-1,9.1-3,14c-2,5-4.7,9.6-7.9,13.8c-3.3,4.2-7,7.7-11.2,10.5c-4.2,2.8-8.6,4.2-13,4.2H957.3c0.8-1.7,2.5-4.4,5.1-8.1
		c2.6-3.7,5.3-7.5,8.2-11.3s5.6-7.2,8.1-10.1c2.5-2.9,4-4.4,4.6-4.4h85c2.5,0,4-0.8,4.4-2.3c0.4-1.5,0.6-3.1,0.6-4.8v-1.5V1424.4z"
		/>
	<path class="st0" d="M1119.5,1468.4l48.1-134.1h48.1l-28.3,78.4l25.4-26.6h38.1l18.7-51.9h47.5l-48.3,134.1h-47.5l17.3-48.1h-53.9
		l-17.3,48.1H1119.5z"/>
</g>
<polygon class="st0" points="1317,1163.6 1317,1163.8 1304.4,1197.3 713.5,1197.3 726.1,1163.6 "/>
<polygon class="st52" points="645.8,611.9 657.9,611.9 646,645.6 645.8,645.6 "/>
<polygon class="st52" points="1215.9,612.1 1215.9,645.6 1204,645.6 "/>
<polygon class="st0" points="1298.2,1213.8 1288.9,1238.6 1285.6,1247.5 694.6,1247.5 696.1,1243.4 707.3,1213.8 "/>
<polygon class="st52" points="626.6,662.1 640.1,662.1 629.6,691.7 628.2,695.8 626.6,695.8 "/>
<polygon class="st52" points="1215.9,662.1 1215.9,695.8 1186.2,695.8 1189.4,686.9 1198.2,662.1 "/>
<polygon class="st0" points="1279.4,1264 1270.3,1288.2 1266.7,1297.7 675.7,1297.7 677.5,1293 688.4,1264 "/>
<polygon class="st52" points="605.1,712.3 622.3,712.3 612,741.3 610.4,746 605.1,746 "/>
<polygon class="st52" points="1215.9,712.3 1215.9,746 1168.4,746 1171.8,736.5 1180.4,712.3 "/>
<polygon class="st1" points="303.7,1334.3 291.1,1368 56.4,1368 56.4,1367.5 68.9,1334.3 "/>
<polygon class="st53" points="-46.7,782.6 -35,782.6 -46.7,815.8 "/>
<polygon class="st53" points="187.3,782.6 187.3,816.3 175.2,816.3 187.2,782.6 "/>
<polygon class="st1" points="266,1434.7 253.4,1468.4 18.8,1468.4 18.8,1467.9 31.2,1434.7 "/>
<polygon class="st53" points="-82.3,883 -70.6,883 -82.3,916.1 "/>
<polygon class="st53" points="187.3,883 187.3,916.7 139.6,916.7 151.6,883 "/>
<polygon class="st1" points="285.1,1383.9 272.5,1417.6 37.8,1417.6 37.8,1417.1 50.2,1383.9 "/>
<polygon class="st53" points="-64.3,832.2 -52.6,832.2 -64.3,865.4 "/>
<polygon class="st53" points="187.9,832.2 187.9,865.9 157.6,865.9 169.6,832.2 "/>
<polygon class="st54" points="2072.6,988 2014.4,1303.6 1753.9,1303.6 1755,1300.5 1767,1266.8 1769.7,1259.3 1773,1249.7 
	1781.6,1225.6 1785,1216 1787.5,1209 1790.6,1200.1 1799.4,1175.3 1802.6,1166.4 1805.3,1158.8 1817.2,1125.4 1865.9,988 "/>
<polygon class="st54" points="2080.9,1373.2 2034.1,1505 2022.1,1538.7 2017.6,1551.6 2016.3,1555.2 2005.8,1584.8 2004.3,1588.9 
	2000,1601.2 1998.5,1605.4 1988.2,1634.4 1986.5,1639.1 1981.9,1652 1970.2,1685.2 1968.9,1688.8 1762.2,1688.8 1820.4,1373.2 "/>
<g>
</g>
<g>
</g>
<g>
</g>
<g>
</g>
<g>
</g>
</svg>
