<?xml version="1.0" encoding="utf-8"?>
<!-- Generator: Adobe Illustrator 24.1.0, SVG Export Plug-In . SVG Version: 6.00 Build 0)  -->
<svg version="1.1" id="Capa_1" xmlns="http://www.w3.org/2000/svg" xmlns:xlink="http://www.w3.org/1999/xlink" x="0px" y="0px"
	 viewBox="0 0 1467.6 374.4" style="enable-background:new 0 0 1467.6 374.4;" xml:space="preserve">
<style type="text/css">
	.st0{display:none;fill:#325E9E;}
	.st1{display:none;fill:#26A5D5;}
	.st2{fill:#26A5D5;}
	.st3{fill:#325E9E;}
</style>
<polygon class="st0" points="495.7,372.3 507.8,372.3 495.8,406 495.7,406 "/>
<polygon class="st0" points="1065.8,372.5 1065.8,406 1053.9,406 "/>
<polygon class="st0" points="476.4,422.5 490,422.5 479.5,452 478,456.2 476.4,456.2 "/>
<polygon class="st0" points="1065.8,422.5 1065.8,456.2 1036.1,456.2 1039.2,447.2 1048,422.5 "/>
<polygon class="st0" points="455,472.7 472.2,472.7 461.9,501.7 460.2,506.4 455,506.4 "/>
<polygon class="st0" points="1065.8,472.7 1065.8,506.4 1018.3,506.4 1021.6,496.8 1030.2,472.7 "/>
<polygon class="st1" points="-196.8,543 -185.1,543 -196.8,576.1 "/>
<polygon class="st1" points="37.2,543 37.2,576.7 25.1,576.7 37.1,543 "/>
<polygon class="st1" points="-232.5,643.4 -220.7,643.4 -232.5,676.5 "/>
<polygon class="st1" points="37.2,643.4 37.2,677.1 -10.5,677.1 1.5,643.4 "/>
<g>
	<path class="st2" d="M130.1,33.5h142.5c-1.1,2.4-3,5.4-5.7,9.2c-2.7,3.8-5.6,7.6-8.7,11.3c-3.1,3.7-6.1,6.9-9.1,9.6
		c-2.9,2.7-5.1,4-6.5,4h-76.9l-14.4,39.7l23.7-23.3h57.7l-35.6,34.2h-49.8l-17.7,49.3H82L130.1,33.5z"/>
	<path class="st2" d="M383.2,167.6h-44.4l-5.2-28.6c-0.3,1-1.5,3-3.5,5.8c-2.1,2.9-4.4,5.9-7.1,9.1c-2.6,3.2-5.2,6.2-7.7,8.9
		c-2.5,2.7-4.3,4.3-5.4,4.8H204.1c0.3-1.7,0.4-2.3,0.4-1.8v-0.8l90-116.4c0.6-1,1.6-2.4,3-4c1.5-1.7,3.1-3.3,4.9-4.9
		c1.8-1.6,3.6-3,5.3-4.3c1.7-1.3,3.2-1.9,4.3-1.9H354c1.8,0,3.4,0.9,4.7,2.8c1.3,1.9,2.5,4.1,3.5,6.8c1,2.7,1.9,5.5,2.7,8.5
		c0.8,3,1.4,5.4,1.8,7.5L383.2,167.6z M282.8,131.2v2.5h50.8l-8.7-59.5L282.8,131.2z"/>
	<path class="st2" d="M509.8,123.6c0-1.3-0.2-2.7-0.7-4.2c-0.5-1.4-1.4-2.2-2.8-2.2h-50c-5,0-9.5-1.2-13.5-3.7
		c-4-2.4-7.5-5.6-10.3-9.4c-2.8-3.8-5-8-6.6-12.5c-1.5-4.6-2.3-9-2.3-13.4c0-4,1.1-8.6,3.4-13.8c2.3-5.1,5.3-10,9-14.7
		c3.7-4.6,7.8-8.5,12.5-11.6c4.7-3.1,9.3-4.7,14.1-4.7H590c-3.9,5.7-8.3,11.5-13.1,17.2c-4.9,5.7-10.3,11.5-16.5,17.2H478
		c-1.9,0-3.5,1.3-4.8,3.8s-1.9,4.6-1.9,6.1V79c0,0.2,0.3,0.5,0.9,1.1c0.6,0.6,1.1,1.1,1.6,1.4c0.7,0.7,1.7,1.3,2.9,1.9
		c1.3,0.6,1.9,0.9,2.1,0.9h47.5c5.4,0,10.1,1.3,14,3.9c3.9,2.6,7,5.9,9.4,9.9c2.4,4,4.1,8.2,5.2,12.8c1.1,4.6,1.7,8.8,1.7,12.7v1.5
		c0,4.4-1,9.1-3,14c-2,5-4.7,9.6-7.9,13.8c-3.3,4.2-7,7.7-11.2,10.5c-4.2,2.8-8.6,4.2-13,4.2H393.8c0.8-1.7,2.5-4.4,5.1-8.1
		c2.6-3.7,5.3-7.5,8.2-11.3c2.9-3.8,5.6-7.2,8.1-10.1c2.5-2.9,4-4.4,4.6-4.4h85c2.5,0,4-0.8,4.4-2.3c0.4-1.5,0.6-3.1,0.6-4.8v-1.5
		V123.6z"/>
	<path class="st2" d="M595.7,167.6l36-99.9h-47.3v-0.3c0.1-0.7,1.4-2.5,3.6-5.6c2.3-3,5-6.4,8.1-10.1c3.1-3.7,6.3-7.3,9.6-10.8
		c3.3-3.5,6-5.9,8.2-7.5h125.2c-1.1,2.4-3,5.4-5.7,9.2c-2.7,3.8-5.6,7.6-8.7,11.3c-3.1,3.7-6.1,6.9-9.1,9.6c-2.9,2.7-5.1,4-6.5,4
		h-29.4l-36,99.9H595.7z"/>
</g>
<g>
	<path class="st3" d="M481,294.3c0-1.3-0.2-2.7-0.7-4.2c-0.5-1.4-1.4-2.2-2.8-2.2h-50c-5,0-9.5-1.2-13.5-3.7
		c-4-2.4-7.5-5.6-10.3-9.4c-2.8-3.8-5-8-6.6-12.5c-1.5-4.6-2.3-9-2.3-13.4c0-4,1.1-8.6,3.4-13.8c2.3-5.1,5.3-10,9-14.7
		c3.7-4.6,7.8-8.5,12.5-11.6c4.7-3.1,9.3-4.7,14.1-4.7h127.5c-3.9,5.7-8.3,11.5-13.1,17.2c-4.9,5.7-10.3,11.5-16.5,17.2h-82.5
		c-1.9,0-3.5,1.3-4.8,3.8s-1.9,4.6-1.9,6.1v1.3c0,0.2,0.3,0.5,0.9,1.1c0.6,0.6,1.1,1.1,1.6,1.4c0.7,0.7,1.7,1.3,2.9,1.9
		c1.3,0.6,1.9,0.9,2.1,0.9h47.5c5.3,0,9.8,1.3,13.6,3.9c3.8,2.6,6.9,5.9,9.4,9.9c2.4,4,4.2,8.2,5.4,12.8c1.2,4.6,1.8,8.8,1.8,12.7
		v1.5c0,4.4-1,9.1-3,14c-2,5-4.7,9.6-7.9,13.8c-3.3,4.2-7,7.7-11.2,10.5c-4.2,2.8-8.6,4.2-13,4.2H365c0.8-1.7,2.5-4.4,5.1-8.1
		c2.6-3.7,5.3-7.5,8.2-11.3s5.6-7.2,8.1-10.1c2.5-2.9,4-4.4,4.6-4.4h85c2.5,0,4-0.8,4.4-2.3c0.4-1.5,0.6-3.1,0.6-4.8v-1.5V294.3z"/>
	<path class="st3" d="M527.3,338.3l48.1-134.1h114.8c4.6,0,8.5,1.3,11.8,3.9c3.3,2.6,5.9,5.8,7.8,9.6c1.9,3.8,3.4,7.8,4.3,12.1
		c0.9,4.3,1.4,8.1,1.4,11.5c0,7.1-1.7,13.6-5,19.5c-3.3,5.9-7.6,11-12.7,15.3c-5.1,4.3-10.8,7.6-17,10c-6.2,2.4-12.1,3.5-17.8,3.5
		h-70.2l-17.5,48.6H527.3z M611,238.6l-13.7,38.5l24-21.5h40c0.1,0,0.5-0.4,1-1.1c0.6-0.8,1.2-1.6,1.9-2.7c0.7-1,1.4-2,2-2.9
		c0.6-0.9,1-1.6,1.1-2.2l0.4-1.3c-0.1-0.2-0.3-0.6-0.4-1.3c-0.6-0.8-1.5-2-2.7-3.4c-1.3-1.4-2-2.2-2.3-2.2H611z"/>
	<path class="st3" d="M744.1,204.2h47.7L756,304.2h79.2c0.3,0-0.7,1.4-2.8,4.3c-2.2,2.9-4.8,6.2-8,10c-3.2,3.8-6.5,7.6-10,11.4
		c-3.5,3.8-6.4,6.6-8.7,8.5H696L744.1,204.2z"/>
	<path class="st3" d="M1008.2,338.3h-44.4l-5.2-28.6c-0.3,1-1.5,3-3.5,5.8c-2.1,2.9-4.4,5.9-7.1,9.1c-2.6,3.2-5.2,6.2-7.7,8.9
		c-2.5,2.7-4.3,4.3-5.4,4.8H829.1c0.3-1.7,0.4-2.3,0.4-1.8v-0.8l90-116.4c0.6-1,1.6-2.4,3-4c1.5-1.7,3.1-3.3,4.9-4.9
		c1.8-1.6,3.6-3,5.3-4.3c1.7-1.3,3.2-1.9,4.3-1.9h42.1c1.8,0,3.4,0.9,4.7,2.8c1.3,1.9,2.5,4.1,3.5,6.8c1,2.7,1.9,5.5,2.7,8.5
		c0.8,3,1.4,5.4,1.8,7.5L1008.2,338.3z M907.8,301.9v2.5h50.8l-8.7-59.5L907.8,301.9z"/>
	<path class="st3" d="M1134.9,294.3c0-1.3-0.2-2.7-0.7-4.2c-0.5-1.4-1.4-2.2-2.8-2.2h-50c-5,0-9.5-1.2-13.5-3.7
		c-4-2.4-7.5-5.6-10.3-9.4c-2.8-3.8-5-8-6.6-12.5c-1.5-4.6-2.3-9-2.3-13.4c0-4,1.1-8.6,3.4-13.8c2.3-5.1,5.3-10,9-14.7
		c3.7-4.6,7.8-8.5,12.5-11.6c4.7-3.1,9.3-4.7,14.1-4.7H1215c-3.9,5.7-8.3,11.5-13.1,17.2c-4.9,5.7-10.3,11.5-16.5,17.2H1103
		c-1.9,0-3.5,1.3-4.8,3.8s-1.9,4.6-1.9,6.1v1.3c0,0.2,0.3,0.5,0.9,1.1c0.6,0.6,1.1,1.1,1.6,1.4c0.7,0.7,1.7,1.3,2.9,1.9
		c1.3,0.6,1.9,0.9,2.1,0.9h47.5c5.4,0,10.1,1.3,14,3.9c3.9,2.6,7,5.9,9.4,9.9c2.4,4,4.1,8.2,5.2,12.8c1.1,4.6,1.7,8.8,1.7,12.7v1.5
		c0,4.4-1,9.1-3,14c-2,5-4.7,9.6-7.9,13.8c-3.3,4.2-7,7.7-11.2,10.5c-4.2,2.8-8.6,4.2-13,4.2h-127.5c0.8-1.7,2.5-4.4,5.1-8.1
		c2.6-3.7,5.3-7.5,8.2-11.3s5.6-7.2,8.1-10.1c2.5-2.9,4-4.4,4.6-4.4h85c2.5,0,4-0.8,4.4-2.3c0.4-1.5,0.6-3.1,0.6-4.8v-1.5V294.3z"/>
	<path class="st3" d="M1181.1,338.3l48.1-134.1h48.1l-28.3,78.4l25.4-26.6h38.1l18.7-51.9h47.5l-48.3,134.1h-47.5l17.3-48.1h-53.9
		l-17.3,48.1H1181.1z"/>
</g>
<polygon class="st3" points="1438.8,33.5 1426.6,67.2 767.1,67.2 775.7,43.4 779.9,33.5 "/>
<polygon class="st3" points="1420.6,83.7 1408.4,117.4 748.9,117.4 761.1,83.7 "/>
<polygon class="st3" points="1402.5,133.9 1399.6,141.9 1390.2,167.6 730.7,167.6 742.9,133.9 "/>
<polygon class="st2" points="366.9,204.2 365,209.5 362.2,217.2 359.5,224.8 356.4,233.7 354.9,237.9 56.9,237.9 59.1,231.7 
	65,215.2 68.9,204.2 "/>
<polygon class="st2" points="331.1,304.6 329.8,308.1 326.4,317.7 323.7,325.2 319,338.3 21,338.3 29.2,315.6 33.1,304.6 "/>
<polygon class="st2" points="349.2,253.8 347.5,258.5 344.3,267.4 341.8,274.4 338.4,284 337.2,287.5 39.2,287.5 41.2,281.9 
	47.1,265.4 51.2,253.8 "/>
<polygon class="st1" points="-214.5,592.6 -202.7,592.6 -214.5,625.8 "/>
<polygon class="st1" points="37.8,592.6 37.8,626.3 7.5,626.3 19.5,592.6 "/>
<g>
</g>
<g>
</g>
<g>
</g>
<g>
</g>
<g>
</g>
</svg>
