<?xml version="1.0" encoding="utf-8"?>
<!-- Generator: Adobe Illustrator 24.1.0, SVG Export Plug-In . SVG Version: 6.00 Build 0)  -->
<svg version="1.1" id="Capa_1" xmlns="http://www.w3.org/2000/svg" xmlns:xlink="http://www.w3.org/1999/xlink" x="0px" y="0px"
	 viewBox="0 0 1467.6 374.4" style="enable-background:new 0 0 1467.6 374.4;" xml:space="preserve">
<style type="text/css">
	.st0{display:none;fill:#325E9E;}
	.st1{display:none;fill:#26A5D5;}
	.st2{fill:#26A5D5;}
	.st3{font-family:'AirstrikeExpanded';}
	.st4{font-size:253.0323px;}
	.st5{fill:#325E9E;}
</style>
<polygon class="st0" points="495.7,372.3 507.8,372.3 495.8,406 495.7,406 "/>
<polygon class="st0" points="1065.8,372.5 1065.8,406 1053.9,406 "/>
<polygon class="st0" points="476.4,422.5 490,422.5 479.5,452 478,456.2 476.4,456.2 "/>
<polygon class="st0" points="1065.8,422.5 1065.8,456.2 1036.1,456.2 1039.2,447.2 1048,422.5 "/>
<polygon class="st0" points="455,472.7 472.2,472.7 461.9,501.7 460.2,506.4 455,506.4 "/>
<polygon class="st0" points="1065.8,472.7 1065.8,506.4 1018.3,506.4 1021.6,496.8 1030.2,472.7 "/>
<polygon class="st1" points="-196.8,543 -185.1,543 -196.8,576.1 "/>
<polygon class="st1" points="37.2,543 37.2,576.7 25.1,576.7 37.1,543 "/>
<polygon class="st1" points="-232.5,643.4 -220.7,643.4 -232.5,676.5 "/>
<polygon class="st1" points="37.2,643.4 37.2,677.1 -10.5,677.1 1.5,643.4 "/>
<text transform="matrix(0.8232 0 0 1 74.9229 167.6034)" class="st2 st3 st4">Fast</text>
<text transform="matrix(0.8232 0 0 1 355.2222 338.3414)" class="st5 st3 st4">Splash</text>
<polygon class="st5" points="1438.8,33.5 1426.6,67.2 767.1,67.2 775.7,43.4 779.9,33.5 "/>
<polygon class="st5" points="1420.6,83.7 1408.4,117.4 748.9,117.4 761.1,83.7 "/>
<polygon class="st5" points="1402.5,133.9 1399.6,141.9 1390.2,167.6 730.7,167.6 742.9,133.9 "/>
<polygon class="st2" points="366.9,204.2 365,209.5 362.2,217.2 359.5,224.8 356.4,233.7 354.9,237.9 56.9,237.9 59.1,231.7 
	65,215.2 68.9,204.2 "/>
<polygon class="st2" points="331.1,304.6 329.8,308.1 326.4,317.7 323.7,325.2 319,338.3 21,338.3 29.2,315.6 33.1,304.6 "/>
<polygon class="st2" points="349.2,253.8 347.5,258.5 344.3,267.4 341.8,274.4 338.4,284 337.2,287.5 39.2,287.5 41.2,281.9 
	47.1,265.4 51.2,253.8 "/>
<polygon class="st1" points="-214.5,592.6 -202.7,592.6 -214.5,625.8 "/>
<polygon class="st1" points="37.8,592.6 37.8,626.3 7.5,626.3 19.5,592.6 "/>
</svg>
